<svg width="41" height="41" viewBox="0 0 41 41" fill="none" xmlns="http://www.w3.org/2000/svg">
<rect width="41" height="41" rx="5" fill="#FF9148"/>
<path d="M12.2495 12.9573C12.0989 12.9959 11.9774 13.1138 11.9121 13.2831C11.8522 13.4396 11.8522 13.6844 11.9121 13.8206C11.9629 13.9347 12.1116 14.0801 12.215 14.1169C12.264 14.1354 12.4436 14.1464 12.821 14.1556C13.3162 14.1666 13.3634 14.1703 13.4596 14.2071C13.6809 14.2973 13.8278 14.4777 13.9004 14.7575C13.9167 14.8164 14.2668 17.1541 14.6823 19.9539C15.0959 22.7536 15.4479 25.0895 15.4642 25.1447C15.4986 25.2717 15.5984 25.4779 15.6783 25.5865C15.8687 25.8515 16.2062 26.0669 16.569 26.1608L16.7305 26.2031H22.0731C27.1527 26.2031 27.4212 26.2013 27.5083 26.17C27.6353 26.1258 27.7369 26.0319 27.7877 25.9141C27.8439 25.7871 27.8475 25.5681 27.7985 25.4208C27.755 25.292 27.6153 25.1466 27.4883 25.0969C27.3994 25.0619 27.2761 25.0619 22.2364 25.0527C17.4761 25.0435 17.0697 25.0416 17.0008 25.0122C16.7994 24.9312 16.6579 24.7876 16.5871 24.5925C16.5636 24.5262 16.413 23.6372 16.413 23.5617C16.413 23.5506 18.1654 23.5414 21.5071 23.5396L26.5994 23.5341L26.7699 23.4825C27.2089 23.3518 27.5409 23.0868 27.7242 22.7205C27.8022 22.564 29.5728 16.7749 29.6109 16.5504C29.6635 16.2503 29.6308 15.9742 29.5184 15.7405C29.3533 15.4018 29.0122 15.2085 28.4734 15.1496C28.3555 15.1367 26.1531 15.1312 21.7556 15.1312C18.1582 15.1312 15.2156 15.1257 15.2156 15.1183C15.2156 15.0631 15.027 13.7157 15.0052 13.6218C14.9453 13.353 14.8075 13.1598 14.6061 13.0677C14.383 12.9647 14.2832 12.9555 13.2473 12.9481C12.7285 12.9462 12.2804 12.9499 12.2495 12.9573ZM27.94 16.3516C28.0979 16.3994 28.2176 16.4712 28.2648 16.5467C28.321 16.6387 28.3174 16.8431 28.2539 17.1026C28.1668 17.4671 26.7899 21.9658 26.7373 22.0615C26.6756 22.1738 26.5468 22.2769 26.3998 22.3321L26.291 22.3744L21.2531 22.3799L16.2171 22.3836L16.2062 22.3155C16.2007 22.2769 16.0193 20.9405 15.8052 19.3464C15.5912 17.7524 15.4098 16.416 15.4043 16.3774L15.3934 16.3092L21.6141 16.3129C27.521 16.3184 27.8385 16.3203 27.94 16.3516Z" fill="white"/>
<path d="M17.4891 27.4443C17.1045 27.5474 16.7888 27.8511 16.6636 28.2414C16.6092 28.4144 16.6092 28.7328 16.6655 28.9169C16.836 29.4673 17.3621 29.8189 17.91 29.7471C18.3708 29.6863 18.7209 29.3937 18.8751 28.9445C18.9204 28.8138 18.9259 28.7715 18.9259 28.5764C18.9259 28.396 18.9168 28.3334 18.8842 28.2358C18.7463 27.8327 18.4451 27.5456 18.0551 27.4443C17.8773 27.3983 17.665 27.3983 17.4891 27.4443Z" fill="white"/>
<path d="M24.9404 27.4198C24.8424 27.4363 24.6538 27.5044 24.5594 27.5597C24.4215 27.637 24.1984 27.8689 24.1186 28.0162C23.988 28.2518 23.9444 28.5886 24.0061 28.8592C24.0496 29.0451 24.1694 29.2568 24.3145 29.4059C24.5377 29.6341 24.8098 29.7501 25.1218 29.752C25.3341 29.752 25.4502 29.7262 25.6461 29.6305C25.9327 29.4924 26.1758 29.1887 26.2556 28.8702C26.2883 28.7414 26.2919 28.4616 26.2629 28.3236C26.1922 27.9867 25.9309 27.6609 25.6134 27.5136C25.4211 27.4234 25.1436 27.3848 24.9404 27.4198Z" fill="white"/>
</svg>
