<svg width="68" height="67" viewBox="0 0 68 67" fill="none" xmlns="http://www.w3.org/2000/svg">
<path d="M67.7345 48.0848C67.6519 47.1926 67.5727 46.3517 67.6304 45.7163C68.1406 40.1028 66.4834 35.0421 62.8388 31.0847C58.7043 26.5945 52.1866 23.9134 45.4052 23.9134C35.9622 23.9134 28.0474 28.7977 24.232 36.9795C24.2229 37.0008 24.2116 37.022 24.2037 37.0432C23.327 33.8573 22.4425 31.6463 21.7344 29.8742C20.5376 26.8771 19.8951 25.2702 20.4098 21.746C21.3438 21.6457 22.2198 21.2491 22.9063 20.6159C23.025 20.6237 23.1483 20.6293 23.2728 20.6293C24.5566 20.6293 25.6697 20.1491 26.474 19.2938L26.5735 19.2949C28.1718 19.2949 29.5326 18.6126 30.4387 17.4088C32.649 17.2257 34.1761 15.9103 34.4781 13.8835C34.8853 11.1633 33.9216 3.54988 31.8391 1.15352C31.0133 0.201 30.1016 0 29.484 0C25.9604 0 20.4494 0.802883 15.7708 1.9966C7.24409 4.17187 5.91157 6.36835 5.70004 8.04C4.8347 14.9376 3.55195 21.0905 2.41852 26.5197C0.812263 34.2113 -0.455778 40.2871 0.157316 45.0642C0.395992 46.9279 0.872215 48.527 1.33147 50.0713C1.9061 51.9987 2.4977 53.992 2.69792 56.7177C2.9728 60.5066 7.1174 62.6796 14.0696 62.6796C16.7945 62.6796 19.5738 62.329 21.8543 61.7048C24.6505 63.0269 33.8775 67 43.7322 67C47.1212 67 50.2783 66.5221 53.1198 65.5796C67.6587 60.7489 68.3114 54.2879 67.7345 48.0848ZM2.40269 44.7817C1.42309 37.1515 5.87198 24.8514 7.94654 8.31805C8.29834 5.5208 21.1959 2.5929 28.2906 2.27688C28.0022 2.5058 27.7952 2.80618 27.768 3.12555C28.6187 2.74477 29.889 2.62193 30.5122 3.87707C30.545 3.66713 30.5586 3.48065 30.5586 3.30645C30.8844 3.93625 31.1819 4.79497 31.433 5.77317C31.7486 7.18017 31.9251 8.6229 31.9285 10.0712C31.9307 11.0773 32.1524 14.6641 30.4749 14.1973C29.441 13.9092 29.415 12.9678 29.1198 11.9986C28.665 10.4833 27.8642 8.7368 27.9614 7.12657C27.5667 8.70665 28.0361 10.6027 28.2103 12.2007C28.3098 13.1309 28.9614 15.6445 27.8076 15.9873C27.1696 16.1805 26.4298 15.7372 25.9016 15.4122C25.7002 15.2872 25.5498 14.3726 25.4763 14.1158C25.0215 12.5457 24.2071 10.7401 24.3112 9.09078C23.913 10.5782 24.301 12.3704 24.4277 13.8947C24.5057 14.8394 24.9887 16.8874 23.9096 17.3631C22.6879 17.994 22.5002 16.4641 22.2739 15.6624C21.8543 14.1738 21.1722 12.5457 21.1903 10.9846C20.7638 12.8863 21.2649 15.113 21.3475 17.0604C21.3916 18.0275 19.3385 18.9007 18.5727 18.2932C17.3726 17.3407 17.1701 15.1107 17.0344 13.6691C17.3941 14.1538 17.9099 14.7802 18.5648 14.7165C18.0083 14.0901 17.7719 13.0159 17.3997 12.2543C17.0581 11.629 16.3647 10.1405 15.5491 10.1159C15.6747 10.3828 16.3624 12.2219 16.2561 12.4162C15.9247 13.0248 15.6023 13.6434 15.2335 14.2263C14.9202 14.7165 14.0107 16.2788 13.2766 15.8064C12.4837 15.2995 11.9859 13.0293 11.9859 13.0293C11.9859 13.0293 12.0154 15.86 13.0402 16.5155C14.0107 17.1386 15.117 16.1559 15.7595 15.4547C15.8874 16.8003 16.2561 18.3781 17.0807 19.4188C14.6578 30.026 19.118 29.92 22.1246 44.0994C22.1246 44.0994 24.1064 41.215 25.8394 37.4999C29.6209 29.3907 37.5085 25.7771 45.1122 25.7771C52.6526 25.7771 60.7269 29.5827 63.6611 36.1621C64.6305 38.3352 64.8715 40.9325 64.6091 43.7934C64.1803 48.4533 68.8385 56.0343 51.4626 61.7304C37.6748 66.2496 20.7163 57.5843 20.7163 57.5843C16.0649 59.0851 5.18762 59.7406 4.958 56.5603C4.57905 51.351 2.90379 48.699 2.40269 44.7817Z" fill="white"/>
<path d="M36.4714 57.5864C39.4995 58.683 42.7901 58.9811 45.9641 58.6082C49.1404 58.2285 52.2489 57.2045 54.9569 55.4781C56.3007 54.6094 57.5507 53.5642 58.5563 52.3102C59.5393 51.0517 60.3356 49.5978 60.52 48.0557C58.5653 50.4163 56.079 51.7161 53.5169 52.749C50.9413 53.754 48.2321 54.3805 45.5015 54.7032C42.7686 55.0147 40.0097 55.0181 37.2767 54.5993C34.4255 54.1612 31.677 53.2217 29.1617 51.8255C30.7047 54.5078 33.4647 56.4921 36.4714 57.5864Z" fill="white"/>
<path d="M26.6546 5.41553C27.1342 2.34581 24.0167 3.3564 23.9081 4.66513C24.7587 4.28323 26.0313 4.16151 26.6546 5.41553Z" fill="white"/>
<path d="M23.5714 7.11285C24.0521 4.04202 20.9357 5.05037 20.8271 6.36357C21.6778 5.97832 22.9492 5.85772 23.5714 7.11285Z" fill="white"/>
<path d="M20.0162 8.88505C20.4969 5.81533 17.3806 6.8248 17.272 8.13576C18.1237 7.75051 19.3929 7.63103 20.0162 8.88505Z" fill="white"/>
</svg>
