<svg width="55" height="55" viewBox="0 0 55 55" fill="none" xmlns="http://www.w3.org/2000/svg">
<circle cx="27.5" cy="27.5" r="27.5" fill="#2C2C2C"/>
<path d="M14.4387 17.6862C14.0058 18.8406 13.8615 23.8911 14.1501 28.9416L14.583 38.1768H28.2915H42V27.3543V16.5318L28.5801 16.0989C18.1905 15.8103 15.0159 16.0989 14.4387 17.6862ZM39.8355 20.1393C39.8355 21.0051 35.0736 21.5823 28.2915 21.5823C21.5094 21.5823 16.7475 21.0051 16.7475 20.1393C16.7475 19.2735 21.5094 18.6963 28.2915 18.6963C35.0736 18.6963 39.8355 19.2735 39.8355 20.1393ZM39.8355 30.9618V36.0123H28.2915H16.7475V30.9618V25.9113H28.2915H39.8355V30.9618Z" fill="white"/>
</svg>
