<svg width="105" height="105" viewBox="0 0 105 105" fill="none" xmlns="http://www.w3.org/2000/svg">
<path d="M52.5 105C81.4949 105 105 81.4949 105 52.5C105 23.5051 81.4949 0 52.5 0C23.5051 0 0 23.5051 0 52.5C0 81.4949 23.5051 105 52.5 105Z" fill="#FF4F90"/>
<path d="M43.7838 66.2588C45.4075 66.2588 46.7238 65.0969 46.7238 63.6636C46.7238 62.2303 45.4075 61.0684 43.7838 61.0684C42.16 61.0684 40.8438 62.2303 40.8438 63.6636C40.8438 65.0969 42.16 66.2588 43.7838 66.2588Z" stroke="white" stroke-width="1.7123"/>
<path d="M62.2642 66.0752C63.888 66.0752 65.2043 64.9132 65.2043 63.4799C65.2043 62.0467 63.888 60.8848 62.2642 60.8848C60.6405 60.8848 59.3242 62.0467 59.3242 63.4799C59.3242 64.9132 60.6405 66.0752 62.2642 66.0752Z" stroke="white" stroke-width="1.7123"/>
<path d="M40.6677 64.0543L35 64.0885L35.0939 40L54.5603 40.0737L57.2259 41.991L57.1591 64.026L46.8201 64.0944" stroke="#FCFCFC" stroke-width="1.92735"/>
<path d="M57.2881 46.3242L64.2183 46.3249L71.6728 54.6573L71.5621 63.3991L65.3279 63.4809" stroke="#FCFCFC" stroke-width="1.92735"/>
<path d="M59.1224 64.0293L57.3086 64.0294L59.1224 64.0293Z" fill="black"/>
<path d="M59.1224 64.0293L57.3086 64.0294" stroke="#FCFCFC" stroke-width="1.92735"/>
</svg>
