<svg width="33" height="30" viewBox="0 0 33 30" fill="none" xmlns="http://www.w3.org/2000/svg">
<path d="M0.708341 0.0179272C0.429374 0.0895615 0.204184 0.307875 0.0831859 0.6217C-0.0277286 0.911648 -0.0277286 1.36533 0.0831859 1.61775C0.177295 1.82924 0.452901 2.09873 0.644481 2.16695C0.735229 2.20106 1.06797 2.22153 1.76707 2.23858C2.68464 2.25905 2.77202 2.26587 2.95016 2.3341C3.36021 2.50124 3.63245 2.83553 3.76689 3.35403C3.79714 3.46318 4.44583 7.79534 5.21551 12.9837C5.98182 18.172 6.63387 22.5008 6.66412 22.6031C6.72798 22.8385 6.91284 23.2205 7.06072 23.4218C7.41363 23.913 8.03879 24.3121 8.711 24.4861L9.01013 24.5645H18.9084C28.3193 24.5645 28.8168 24.5611 28.9781 24.5031C29.2134 24.4213 29.4016 24.2473 29.4957 24.029C29.5999 23.7936 29.6066 23.3877 29.5159 23.1148C29.4352 22.876 29.1764 22.6065 28.9411 22.5144C28.7765 22.4496 28.5479 22.4496 19.2109 22.4326C10.3915 22.4155 9.63865 22.4121 9.51093 22.3575C9.13785 22.2074 8.87569 21.9414 8.74461 21.5798C8.70091 21.457 8.42195 19.8094 8.42195 19.6695C8.42195 19.6491 11.6687 19.632 17.8598 19.6286L27.2942 19.6184L27.6102 19.5229C28.4235 19.2807 29.0386 18.7895 29.3781 18.1106C29.5226 17.8207 32.803 7.09264 32.8736 6.67648C32.971 6.12047 32.9105 5.6088 32.7022 5.17558C32.3963 4.54793 31.7644 4.18976 30.7662 4.0806C30.5477 4.05672 26.4674 4.04649 18.3202 4.04649C11.6553 4.04649 6.20365 4.03626 6.20365 4.02261C6.20365 3.92028 5.85411 1.42332 5.81377 1.24935C5.70286 0.751324 5.44742 0.393152 5.07434 0.222595C4.66093 0.0315723 4.47608 0.0145149 2.55692 0.000871658C1.59566 -0.00254059 0.765479 0.004282 0.708341 0.0179272ZM29.778 6.30808C30.0705 6.39677 30.2923 6.5298 30.3797 6.66966C30.4839 6.84022 30.4771 7.21885 30.3595 7.69983C30.1982 8.37523 27.6471 16.7121 27.5497 16.8895C27.4354 17.0975 27.1968 17.2886 26.9245 17.3909L26.7229 17.4693L17.3892 17.4796L8.05895 17.4864L8.03879 17.3602C8.0287 17.2886 7.6926 14.8121 7.29599 11.858C6.89939 8.90396 6.56329 6.42747 6.5532 6.35583L6.53304 6.22962L18.0581 6.23644C29.0016 6.24668 29.5898 6.25009 29.778 6.30808Z" fill="white"/>
<path d="M10.417 25.7078C9.70444 25.8988 9.11962 26.4616 8.88771 27.1848C8.78688 27.5054 8.78688 28.0956 8.89107 28.4367C9.20701 29.4566 10.1817 30.1081 11.1967 29.9751C12.0505 29.8625 12.6991 29.3202 12.9848 28.4879C13.0689 28.2457 13.0789 28.1672 13.0789 27.8056C13.0789 27.4713 13.0621 27.3554 13.0016 27.1746C12.7462 26.4275 12.1883 25.8954 11.4656 25.7078C11.1362 25.6225 10.743 25.6225 10.417 25.7078Z" fill="white"/>
<path d="M24.2196 25.6635C24.0381 25.6942 23.6885 25.8205 23.5137 25.9228C23.2583 26.0661 22.8449 26.4959 22.697 26.7687C22.455 27.2054 22.3743 27.8296 22.4886 28.3311C22.5693 28.6756 22.7911 29.0679 23.06 29.3442C23.4734 29.7671 23.9776 29.982 24.5557 29.9855C24.9489 29.9855 25.164 29.9377 25.527 29.7603C26.0581 29.5045 26.5084 28.9416 26.6563 28.3515C26.7168 28.1127 26.7235 27.5942 26.6698 27.3384C26.5387 26.7142 26.0547 26.1104 25.4665 25.8375C25.1102 25.6704 24.596 25.5987 24.2196 25.6635Z" fill="white"/>
</svg>
