<svg width="90" height="90" viewBox="0 0 90 90" fill="none" xmlns="http://www.w3.org/2000/svg">
<path d="M45 90C69.8528 90 90 69.8528 90 45C90 20.1472 69.8528 0 45 0C20.1472 0 0 20.1472 0 45C0 69.8528 20.1472 90 45 90Z" fill="#FF924A"/>
<path d="M56.5333 30.9998H34.4148C30.8725 30.9998 28.001 33.8713 28.001 37.4136V53.0332C28.001 56.5755 30.8725 59.447 34.4148 59.447H56.5333C60.0756 59.447 62.9471 56.5755 62.9471 53.0332V37.4136C62.9471 33.8713 60.0756 30.9998 56.5333 30.9998Z" stroke="white" stroke-width="1.88976"/>
<path d="M28.6846 37.5047L45.4722 47.0523L62.8822 36.4827" stroke="white" stroke-width="1.88976"/>
</svg>
