<svg width="35" height="30" viewBox="0 0 35 30" fill="none" xmlns="http://www.w3.org/2000/svg">
<path d="M9.24871 0.0371132C6.14933 0.335648 3.3553 1.98677 1.65638 4.52662C0.350049 6.47628 -0.184881 8.71299 0.056182 11.2069C0.313316 13.8639 1.62424 16.6035 4.00502 19.451C5.09095 20.7485 6.48911 22.147 8.03191 23.4721C9.06963 24.3631 9.86629 24.99 11.5445 26.237C12.169 26.7008 12.7751 27.1509 12.8876 27.2359C13.0024 27.3209 13.2549 27.5069 13.4501 27.6516C13.6452 27.7985 14.1526 28.1729 14.575 28.4875C14.9975 28.7998 15.5554 29.2154 15.8148 29.406C16.0742 29.5989 16.352 29.7895 16.4324 29.8286C16.864 30.0467 17.4288 30.0467 17.8604 29.8286C17.9407 29.7895 18.2185 29.5989 18.478 29.406C18.7374 29.2154 19.2953 28.7998 19.7177 28.4875C20.1402 28.1729 20.6475 27.7985 20.8427 27.6516C21.0378 27.5069 21.2927 27.3209 21.4052 27.2359C21.52 27.1509 22.1238 26.7008 22.7482 26.237C24.7731 24.7328 25.8981 23.8257 27.1218 22.712C29.6151 20.4431 31.4058 18.2868 32.6433 16.0661C33.5364 14.4632 34.0851 12.7914 34.2366 11.2069C34.3881 9.63156 34.2274 8.12281 33.7636 6.78629C32.6548 3.59427 29.9571 1.14858 26.6167 0.310387C25.7741 0.0991173 24.9614 0.000370026 24.0591 0.000370026C22.8217 0.000370026 21.7748 0.170305 20.6475 0.551512C19.4353 0.96257 18.3907 1.55045 17.3484 2.41161L17.1464 2.57695L16.926 2.39554C15.4084 1.15088 13.7623 0.409134 11.8591 0.112894C11.129 0.000370026 9.98338 -0.0340767 9.24871 0.0371132ZM11.2736 3.28196C13.0782 3.55064 14.6347 4.41409 15.7505 5.76439C15.8699 5.90906 16.0099 6.06522 16.0582 6.10885C16.1936 6.23285 16.4025 6.34997 16.6069 6.42346C16.7768 6.48316 16.8158 6.48546 17.1464 6.48546C17.477 6.48546 17.516 6.48316 17.6859 6.42346C17.8902 6.34997 18.0992 6.23285 18.2346 6.10885C18.2828 6.06522 18.4229 5.90906 18.5422 5.76439C19.5295 4.57254 20.9047 3.73205 22.436 3.38759C23.0145 3.25899 23.3015 3.22914 24.0224 3.22914C24.7364 3.22684 24.9913 3.24981 25.5583 3.36922C27.1539 3.7022 28.6049 4.58632 29.6151 5.84017C30.6712 7.15142 31.1625 8.72677 31.0614 10.4789C30.988 11.7397 30.7056 12.7593 30.0719 14.043C29.7804 14.6355 29.5508 15.0327 29.1651 15.616C28.0814 17.2488 26.5547 18.9344 24.5849 20.6682C23.4094 21.7061 22.5967 22.3445 20.1769 24.138C19.4009 24.7144 17.5413 26.0946 17.3599 26.2324L17.1464 26.3908L16.9352 26.2324C16.7515 26.0946 14.8919 24.7144 14.1159 24.138C12.2585 22.7625 11.0877 21.8577 10.3392 21.2193C8.36481 19.536 6.81283 17.9308 5.65802 16.3738C4.6203 14.9753 3.87186 13.5309 3.50912 12.2173C3.13949 10.8854 3.12342 9.38125 3.4655 8.17563C4.20476 5.57608 6.52355 3.62412 9.29462 3.27507C9.45304 3.2544 9.61834 3.23373 9.66196 3.22914C9.70558 3.22454 10.0155 3.22225 10.3507 3.22684C10.8168 3.23373 11.0326 3.24521 11.2736 3.28196Z" fill="white"/>
</svg>
