<svg width="55" height="67" viewBox="0 0 55 67" fill="none" xmlns="http://www.w3.org/2000/svg">
<path fill-rule="evenodd" clip-rule="evenodd" d="M28.2656 62.8125C14.9661 62.8125 4.1875 51.5921 4.1875 38.9961C4.1875 36.0711 4.25241 33.6968 6.28125 31.4062C6.06141 32.7337 9.2062 44.0839 19.4823 43.4893C19.0364 34.8651 16.704 13.7371 27.537 6.43409C26.5802 17.9162 29.392 33.3409 41.9357 35.5938C41.2175 30.9896 41.3034 23.3307 44.5278 21.9153C44.8753 28.9691 50.0909 33.32 50.0909 40.0995C50.0909 52.3773 38.213 62.8125 28.2656 62.8125ZM47.9573 14.5578C38.7762 17.175 37.095 24.5974 37.6875 29.3125C31.1383 21.6117 31.4062 12.7572 31.4062 0C10.4018 7.92066 15.2865 30.753 14.6562 37.6875C9.37372 33.3639 8.375 23.0312 8.375 23.0312C2.79725 25.9018 0 33.5649 0 39.7812C0 54.8144 12.1856 67 27.2188 67C42.2519 67 54.4375 54.8144 54.4375 39.7812C54.4375 30.8472 47.8778 26.7267 47.9573 14.5578Z" fill="white"/>
</svg>
