<svg width="55" height="55" viewBox="0 0 55 55" fill="none" xmlns="http://www.w3.org/2000/svg">
<circle cx="27.5" cy="27.5" r="27.5" fill="#2C2C2C"/>
<path d="M21.408 14.4558C20.996 15.2852 20.5841 16.6124 20.5841 17.2759C20.5841 18.1883 19.8425 18.603 18.2769 18.603C17.0409 18.603 15.5577 19.0177 14.9809 19.5984C13.7449 20.8425 13.6625 25.7363 14.8161 26.4828C15.3105 26.7316 15.6401 29.3858 15.6401 32.3718C15.6401 40.3345 16.5465 40.998 28 40.998C39.4535 40.998 40.3599 40.3345 40.3599 32.3718C40.3599 29.3858 40.7719 26.7316 41.1839 26.4828C42.3375 25.7363 42.2551 20.8425 41.0191 19.5984C40.4423 19.0177 39.0415 18.603 37.8879 18.603C36.1575 18.603 35.5807 18.0224 35.004 15.8659L34.18 13.2116L28.2472 13.0457C23.1384 12.8798 22.1496 13.1287 21.408 14.4558ZM26.352 17.0271C26.352 19.1007 23.6328 18.8519 23.2208 16.6953C23.056 15.7 23.468 15.2852 24.6216 15.2852C25.8576 15.2852 26.352 15.7829 26.352 17.0271ZM32.7792 16.6953C32.3672 18.8519 29.648 19.1007 29.648 17.0271C29.648 15.7829 30.1424 15.2852 31.3784 15.2852C32.532 15.2852 32.944 15.7 32.7792 16.6953ZM26.352 23.165C26.352 25.2386 26.1872 25.3215 21.6552 25.0727C17.4529 24.8239 16.8761 24.575 16.6289 22.9161C16.3817 21.1743 16.6289 21.0914 21.3256 21.0914C26.1872 21.0914 26.352 21.1743 26.352 23.165ZM39.3711 22.9161C39.1239 24.575 38.5471 24.8239 34.4272 25.0727C29.8128 25.3215 29.648 25.2386 29.648 23.165C29.648 21.1743 29.8128 21.0914 34.6744 21.0914C39.3711 21.0914 39.6183 21.1743 39.3711 22.9161ZM26.352 33.2013V38.5927L22.4792 38.3438L18.5241 38.095L18.2769 32.8695L18.0297 27.7269H22.232H26.352V33.2013ZM37.7231 32.8695L37.4759 38.095L33.6032 38.3438L29.648 38.5927V33.2013V27.7269H33.768H37.9703L37.7231 32.8695Z" fill="white"/>
</svg>
