<svg width="55" height="55" viewBox="0 0 55 55" fill="none" xmlns="http://www.w3.org/2000/svg">
<circle cx="27.5" cy="27.5" r="27.5" fill="#2C2C2C"/>
<path d="M21.6 15.4863C16.2667 17.8324 16 18.3538 16 23.437C16 30.4752 19.4667 37.2528 24.1333 39.7292C27.6 41.4236 28.4 41.4236 31.8667 39.7292C36.5333 37.2528 40 30.4752 40 23.437C40 18.2234 39.7333 17.8324 33.8667 15.4863C30.5333 14.0526 27.7333 12.8796 27.6 13.0099C27.4667 13.0099 24.8 14.183 21.6 15.4863ZM32.6667 17.7021C36.6667 19.5268 37.3333 20.5695 37.3333 24.219C37.3333 29.5628 34.2667 35.8191 30.6667 37.6438C25.2 40.5112 18.6667 33.082 18.6667 24.219C18.6667 20.5695 19.3333 19.5268 23.0667 17.7021C25.3333 16.6594 27.4667 15.6167 27.6 15.6167C27.7333 15.4863 30 16.529 32.6667 17.7021Z" fill="white"/>
</svg>
