<svg width="41" height="41" viewBox="0 0 41 41" fill="none" xmlns="http://www.w3.org/2000/svg">
<rect x="0.5" y="0.5" width="40" height="40" rx="5.5" fill="white" stroke="#FF4F90"/>
<path d="M16.585 12.0191C15.0485 12.1671 13.6634 12.9856 12.8211 14.2447C12.1735 15.2113 11.9083 16.3201 12.0279 17.5564C12.1553 18.8736 12.8052 20.2318 13.9855 21.6434C14.5238 22.2866 15.2169 22.98 15.9818 23.6368C16.4962 24.0785 16.8912 24.3893 17.7231 25.0075C18.0327 25.2375 18.3332 25.4606 18.389 25.5027C18.4459 25.5449 18.5711 25.6371 18.6678 25.7088C18.7645 25.7816 19.0161 25.9672 19.2255 26.1232C19.4349 26.278 19.7115 26.4841 19.8401 26.5786C19.9687 26.6742 20.1064 26.7687 20.1463 26.788C20.3602 26.8962 20.6402 26.8962 20.8542 26.788C20.894 26.7687 21.0317 26.6742 21.1603 26.5786C21.289 26.4841 21.5655 26.278 21.7749 26.1232C21.9844 25.9672 22.2359 25.7816 22.3326 25.7088C22.4294 25.6371 22.5557 25.5449 22.6115 25.5027C22.6684 25.4606 22.9677 25.2375 23.2773 25.0075C24.2811 24.2618 24.8388 23.8122 25.4455 23.26C26.6815 22.1352 27.5693 21.0662 28.1827 19.9654C28.6255 19.1707 28.8975 18.342 28.9726 17.5564C29.0477 16.7755 28.968 16.0275 28.7381 15.3649C28.1884 13.7825 26.8511 12.5701 25.1951 12.1546C24.7774 12.0498 24.3745 12.0009 23.9272 12.0009C23.3137 12.0009 22.7947 12.0851 22.2359 12.2741C21.635 12.4779 21.1171 12.7693 20.6004 13.1962L20.5002 13.2782L20.391 13.1883C19.6386 12.5712 18.8226 12.2035 17.8791 12.0567C17.5171 12.0009 16.9492 11.9838 16.585 12.0191ZM17.5888 13.6277C18.4834 13.7609 19.2551 14.1889 19.8082 14.8583C19.8674 14.9301 19.9368 15.0075 19.9607 15.0291C20.0279 15.0906 20.1315 15.1486 20.2328 15.1851C20.317 15.2147 20.3363 15.2158 20.5002 15.2158C20.6641 15.2158 20.6835 15.2147 20.7677 15.1851C20.869 15.1486 20.9726 15.0906 21.0397 15.0291C21.0636 15.0075 21.133 14.9301 21.1922 14.8583C21.6816 14.2675 22.3634 13.8508 23.1225 13.6801C23.4093 13.6163 23.5516 13.6015 23.909 13.6015C24.2629 13.6004 24.3893 13.6118 24.6704 13.671C25.4614 13.836 26.1807 14.2743 26.6815 14.8959C27.2051 15.546 27.4486 16.3269 27.3985 17.1956C27.3621 17.8206 27.2221 18.326 26.908 18.9624C26.7635 19.2561 26.6496 19.4531 26.4584 19.7422C25.9212 20.5517 25.1644 21.3873 24.1878 22.2468C23.6051 22.7614 23.2022 23.0779 22.0026 23.967C21.6179 24.2527 20.696 24.9369 20.6061 25.0052L20.5002 25.0838L20.3955 25.0052C20.3045 24.9369 19.3826 24.2527 18.9979 23.967C18.0771 23.2851 17.4967 22.8365 17.1256 22.52C16.1468 21.6856 15.3774 20.8898 14.8049 20.1179C14.2905 19.4246 13.9195 18.7085 13.7396 18.0574C13.5564 17.3971 13.5484 16.6514 13.718 16.0537C14.0845 14.765 15.234 13.7973 16.6078 13.6243C16.6863 13.614 16.7682 13.6038 16.7899 13.6015C16.8115 13.5992 16.9651 13.5981 17.1313 13.6004C17.3623 13.6038 17.4693 13.6095 17.5888 13.6277Z" fill="#FF4F90"/>
</svg>
