<svg width="41" height="41" viewBox="0 0 41 41" fill="none" xmlns="http://www.w3.org/2000/svg">
<rect width="41" height="41" rx="5" fill="#141515"/>
<path d="M16.585 13.6538C15.0485 13.8018 13.6634 14.6204 12.8211 15.8795C12.1735 16.846 11.9083 17.9549 12.0279 19.1912C12.1553 20.5084 12.8052 21.8665 13.9855 23.2782C14.5238 23.9214 15.2169 24.6147 15.9818 25.2716C16.4962 25.7133 16.8912 26.0241 17.7231 26.6423C18.0327 26.8722 18.3332 27.0954 18.389 27.1375C18.4459 27.1796 18.5711 27.2718 18.6678 27.3436C18.7645 27.4164 19.0161 27.602 19.2255 27.7579C19.4349 27.9128 19.7115 28.1188 19.8401 28.2133C19.9687 28.3089 20.1064 28.4034 20.1463 28.4228C20.3602 28.5309 20.6402 28.5309 20.8542 28.4228C20.894 28.4034 21.0317 28.3089 21.1603 28.2133C21.289 28.1188 21.5655 27.9128 21.7749 27.7579C21.9844 27.602 22.2359 27.4164 22.3326 27.3436C22.4294 27.2718 22.5557 27.1796 22.6115 27.1375C22.6684 27.0954 22.9677 26.8722 23.2773 26.6423C24.2811 25.8966 24.8388 25.4469 25.4455 24.8948C26.6815 23.77 27.5693 22.701 28.1827 21.6001C28.6255 20.8055 28.8975 19.9767 28.9726 19.1912C29.0477 18.4102 28.968 17.6623 28.7381 16.9997C28.1884 15.4173 26.8511 14.2049 25.1951 13.7893C24.7774 13.6846 24.3745 13.6356 23.9272 13.6356C23.3137 13.6356 22.7947 13.7199 22.2359 13.9089C21.635 14.1126 21.1171 14.4041 20.6004 14.831L20.5002 14.913L20.391 14.823C19.6386 14.206 18.8226 13.8383 17.8791 13.6914C17.5171 13.6356 16.9492 13.6186 16.585 13.6538ZM17.5888 15.2625C18.4834 15.3957 19.2551 15.8237 19.8082 16.4931C19.8674 16.5648 19.9368 16.6422 19.9607 16.6639C20.0279 16.7254 20.1315 16.7834 20.2328 16.8198C20.317 16.8494 20.3363 16.8506 20.5002 16.8506C20.6641 16.8506 20.6835 16.8494 20.7677 16.8198C20.869 16.7834 20.9726 16.7254 21.0397 16.6639C21.0636 16.6422 21.133 16.5648 21.1922 16.4931C21.6816 15.9023 22.3634 15.4856 23.1225 15.3148C23.4093 15.2511 23.5516 15.2363 23.909 15.2363C24.2629 15.2351 24.3893 15.2465 24.6704 15.3057C25.4614 15.4708 26.1807 15.9091 26.6815 16.5307C27.2051 17.1807 27.4486 17.9617 27.3985 18.8303C27.3621 19.4553 27.2221 19.9608 26.908 20.5972C26.7635 20.8909 26.6496 21.0878 26.4584 21.377C25.9212 22.1864 25.1644 23.022 24.1878 23.8816C23.6051 24.3961 23.2022 24.7126 22.0026 25.6017C21.6179 25.8875 20.696 26.5717 20.6061 26.64L20.5002 26.7186L20.3955 26.64C20.3045 26.5717 19.3826 25.8875 18.9979 25.6017C18.0771 24.9198 17.4967 24.4713 17.1256 24.1548C16.1468 23.3203 15.3774 22.5245 14.8049 21.7527C14.2905 21.0594 13.9195 20.3433 13.7396 19.6921C13.5564 19.0318 13.5484 18.2861 13.718 17.6885C14.0845 16.3998 15.234 15.4321 16.6078 15.259C16.6863 15.2488 16.7682 15.2386 16.7899 15.2363C16.8115 15.234 16.9651 15.2329 17.1313 15.2351C17.3623 15.2386 17.4693 15.2442 17.5888 15.2625Z" fill="white"/>
</svg>
