<svg width="90" height="90" viewBox="0 0 90 90" fill="none" xmlns="http://www.w3.org/2000/svg">
<path d="M45.0001 89.9999C69.8529 89.9999 90 69.8528 90 45C90 20.1472 69.8529 0 45.0001 0C20.1473 0 0 20.1472 0 45C0 69.8528 20.1473 89.9999 45.0001 89.9999Z" fill="#FF5595"/>
<path d="M26.1873 30.1609C26.1873 30.1609 27.1615 27.1004 28.8261 26.7525C29.4578 26.6203 35.974 25.0273 38.2192 26.9725C40.914 29.3069 43.192 33.117 40.929 37.51C39.0598 41.1383 38.4817 43.4296 41.3406 45.9584C44.1993 48.4872 46.5201 50.1708 49.3935 50.7817C51.6735 51.2662 50.9062 49.477 53.9847 49.5868C53.9847 49.5868 56.9005 49.5017 59.4679 50.3869C62.6565 51.4864 66.2586 50.8006 63.9497 61.1357C61.6407 71.4709 44.6104 59.106 37.4773 52.9801C31.0105 47.4264 23.0173 38.0269 26.1873 30.1609Z" fill="#FF5595" stroke="white" stroke-width="1.88976"/>
</svg>
