<svg width="105" height="105" viewBox="0 0 105 105" fill="none" xmlns="http://www.w3.org/2000/svg">
<path d="M52.5 105C81.4949 105 105 81.4949 105 52.5C105 23.5051 81.4949 0 52.5 0C23.5051 0 0 23.5051 0 52.5C0 81.4949 23.5051 105 52.5 105Z" fill="#FF924A"/>
<path d="M51.9946 56.0441C55.9698 56.0441 59.1923 52.8216 59.1923 48.8464C59.1923 44.8712 55.9698 41.6487 51.9946 41.6487C48.0194 41.6487 44.7969 44.8712 44.7969 48.8464C44.7969 52.8216 48.0194 56.0441 51.9946 56.0441Z" stroke="white" stroke-width="3.77953"/>
<path d="M53.3026 30.4701C44.9787 30.1506 33.4798 34.6307 35.62 48.1287C37.77 61.6884 51.919 74.9411 51.919 74.9411C51.919 74.9411 64.2807 65.0535 68.8333 48.5632C72.5109 35.242 61.2449 30.775 53.3026 30.4701Z" stroke="white" stroke-width="3.77953"/>
</svg>
