<svg width="49" height="67" viewBox="0 0 49 67" fill="none" xmlns="http://www.w3.org/2000/svg">
<path fill-rule="evenodd" clip-rule="evenodd" d="M25.2993 0.105811C26.6349 0.464898 27.5625 1.66985 27.5625 3.04572V24.3637H45.9375C47.0342 24.3637 48.0469 24.9468 48.593 25.8924C49.1393 26.8379 49.1353 28.0016 48.5829 28.9435L27.1454 65.4887C26.448 66.6773 25.0362 67.2532 23.7007 66.8942C22.3651 66.5351 21.4375 65.33 21.4375 63.9544V42.6364H3.0625C1.96591 42.6364 0.953052 42.0532 0.406886 41.1076C-0.13928 40.162 -0.135361 38.9983 0.417175 38.0564L21.8546 1.51122C22.5519 0.322768 23.9637 -0.253248 25.2993 0.105811ZM8.39443 36.5455H24.5C26.1914 36.5455 27.5625 37.909 27.5625 39.591V52.6894L40.6057 30.4547H24.5C22.8086 30.4547 21.4375 29.0912 21.4375 27.4092V14.3105L8.39443 36.5455Z" fill="white"/>
</svg>
