<svg width="87" height="87" viewBox="0 0 87 87" fill="none" xmlns="http://www.w3.org/2000/svg">
<path d="M61.8424 0.943359H25C11.7139 0.943359 0.943359 11.7195 0.943359 25.0126V61.8741C0.943359 75.1672 11.7139 85.9433 25 85.9433H61.8424C75.1286 85.9433 85.8991 75.1672 85.8991 61.8741V25.0126C85.8991 11.7195 75.1286 0.943359 61.8424 0.943359Z" fill="black" stroke="black" stroke-width="1.88673"/>
<path d="M49.5793 25.156C60.2908 26.3806 55.1714 37.6591 55.1714 37.6591L55.1107 50.5252C62.1272 65.457 51.713 67.6797 51.713 67.6797L35.0846 67.6291C24.1859 62.3328 32.5039 50.5878 32.5039 50.5878L32.7677 37.9026C32.7677 37.9026 27.9776 27.959 38.0366 25.1207C38.0366 25.1207 43.1806 24.7842 49.3796 25.1259L49.5793 25.156Z" stroke="white" stroke-width="1.51181"/>
<path d="M38.3821 25.1069C38.3821 25.1069 38.3133 20.358 39.1844 20.1589C41.5667 20.0802 48.3992 20.1632 48.3992 20.1632C48.9399 20.22 49.1482 23.7739 49.2996 25.1396" stroke="white" stroke-width="1.51181"/>
<path d="M32.8135 37.7012L55.1484 37.7018" stroke="white" stroke-width="1.51181"/>
<path d="M32.6105 50.2441L54.9453 50.2447" stroke="white" stroke-width="1.51181"/>
<path d="M20.7152 53.2219C18.9896 53.4408 23.7517 53.8649 24.0313 56.8016C24.1855 58.4212 25.2463 52.9173 27.3829 53.0372C29.0599 53.1313 24.3285 51.598 23.9683 49.1396C23.7179 47.4302 23.5656 52.8604 20.7152 53.2219Z" stroke="white" stroke-width="1.51181"/>
<path d="M56.4889 23.7203C54.397 23.9111 61.0471 25.5804 61.3837 29.6736C61.5694 31.931 62.7774 25.4062 65.6464 24.6529C68.5168 23.8992 62.3093 24.0017 61.9457 18.2958C61.7669 15.4899 60.2615 23.3762 56.4889 23.7203Z" stroke="white" stroke-width="1.51181"/>
</svg>
