<svg width="90" height="90" viewBox="0 0 90 90" fill="none" xmlns="http://www.w3.org/2000/svg">
<path d="M45 90C69.8528 90 90 69.8528 90 45C90 20.1472 69.8528 0 45 0C20.1472 0 0 20.1472 0 45C0 69.8528 20.1472 90 45 90Z" fill="#FF924A"/>
<path d="M45.3799 26.1171C38.2452 25.8432 28.3889 29.6832 30.2234 41.2529C32.0663 52.8756 44.194 64.235 44.194 64.235C44.194 64.235 54.7897 55.76 58.6919 41.6254C61.8442 30.2072 52.1876 26.3784 45.3799 26.1171Z" fill="#FF924A" stroke="white" stroke-width="2"/>
<path d="M44.1695 48.0372C47.5768 48.0372 50.3389 45.275 50.3389 41.8677C50.3389 38.4604 47.5768 35.6982 44.1695 35.6982C40.7622 35.6982 38 38.4604 38 41.8677C38 45.275 40.7622 48.0372 44.1695 48.0372Z" fill="#FF924A" stroke="white" stroke-width="2"/>
</svg>
