<svg width="33" height="33" viewBox="0 0 33 33" fill="none" xmlns="http://www.w3.org/2000/svg">
<path d="M16.5957 17.583C16.4907 17.568 16.3558 17.568 16.2358 17.583C13.5965 17.493 11.4971 15.3336 11.4971 12.6792C11.4971 9.96493 13.6865 7.7605 16.4158 7.7605C19.13 7.7605 21.3344 9.96493 21.3344 12.6792C21.3194 15.3336 19.235 17.493 16.5957 17.583Z" stroke="white" stroke-width="2.83519" stroke-linecap="round" stroke-linejoin="round"/>
<path d="M26.5176 27.4807C23.8483 29.925 20.3093 31.4096 16.4103 31.4096C12.5113 31.4096 8.97226 29.925 6.30298 27.4807C6.45294 26.071 7.3527 24.6914 8.95727 23.6117C13.0662 20.8824 19.7844 20.8824 23.8633 23.6117C25.4679 24.6914 26.3676 26.071 26.5176 27.4807Z" stroke="white" stroke-width="2.83519" stroke-linecap="round" stroke-linejoin="round"/>
<path d="M16.4135 31.4097C24.6954 31.4097 31.4094 24.6956 31.4094 16.4136C31.4094 8.13147 24.6954 1.41748 16.4135 1.41748C8.13141 1.41748 1.41748 8.13147 1.41748 16.4136C1.41748 24.6956 8.13141 31.4097 16.4135 31.4097Z" stroke="white" stroke-width="2.83519" stroke-linecap="round" stroke-linejoin="round"/>
</svg>
