<svg width="30" height="30" viewBox="0 0 30 30" fill="none" xmlns="http://www.w3.org/2000/svg">
<path d="M11.8833 0C5.32727 0 0 5.20594 0 11.6126C0 18.0193 5.32727 23.2253 11.8833 23.2253C14.4773 23.2253 16.8747 22.4088 18.8298 21.0266L28.0262 29.9922L29.9922 28.071L20.905 19.1694C22.6907 17.1361 23.7666 14.4971 23.7666 11.6126C23.7666 5.20594 18.4393 0 11.8833 0ZM11.8833 1.36619C17.6829 1.36619 22.3685 5.94507 22.3685 11.6126C22.3685 17.2802 17.6829 21.8591 11.8833 21.8591C6.08363 21.8591 1.39803 17.2802 1.39803 11.6126C1.39803 5.94507 6.08363 1.36619 11.8833 1.36619Z" fill="black"/>
</svg>
