<svg width="66" height="73" viewBox="0 0 66 73" fill="none" xmlns="http://www.w3.org/2000/svg">
<path d="M30.5955 69.2315C31.3654 69.6338 31.7505 69.8349 32.2845 69.9391C32.7007 70.0203 33.3007 70.0203 33.717 69.9391C34.251 69.8349 34.6361 69.6338 35.406 69.2315C42.5257 65.5121 63.0007 53.3573 63.0007 36.5838V22.3623C63.0007 19.3561 63.0007 17.8531 62.5102 16.561C62.0771 15.4197 61.3732 14.4012 60.4594 13.5938C59.4251 12.6797 58.0215 12.152 55.2142 11.0965L35.1075 3.53645C34.3279 3.24333 33.9382 3.09676 33.537 3.03863C33.1815 2.98712 32.82 2.98712 32.4645 3.03863C32.0632 3.09676 31.6736 3.24333 30.894 3.53645L10.7872 11.0965C7.97998 12.152 6.57636 12.6797 5.54196 13.5938C4.62816 14.4012 3.92425 15.4197 3.49108 16.561C3.00073 17.8531 3.00073 19.3561 3.00073 22.3623V36.5838C3.00073 53.3573 23.4756 65.5121 30.5955 69.2315Z" stroke="white" stroke-width="6" stroke-linecap="round" stroke-linejoin="round"/>
</svg>
