<svg width="23" height="23" viewBox="0 0 23 23" fill="none" xmlns="http://www.w3.org/2000/svg">
<path d="M10.0357 4.22974L8.56526 8.45947L6.60469 8.53661C5.52637 8.58804 3.60256 8.66518 2.31593 8.7166L0 8.8066L3.05115 11.3007C4.74214 12.6764 6.26159 13.9234 6.43314 14.0777L6.75173 14.3477L5.56313 18.6803L4.37453 23L7.90357 20.493C9.83964 19.1302 11.4571 17.9989 11.5061 17.9989C11.5429 17.9989 13.1359 19.1045 15.0229 20.4416C16.91 21.7915 18.4784 22.8714 18.5152 22.8457C18.5397 22.8072 18.0373 20.8916 17.4001 18.5646C16.4688 15.2091 16.2605 14.3091 16.3831 14.2063C16.4688 14.1291 18.0005 12.8949 19.7773 11.4421L23 8.8066L20.5615 8.7166C19.2259 8.66518 17.2898 8.58804 16.2728 8.53661L14.4225 8.45947L12.9521 4.22974L11.4939 0L10.0357 4.22974Z" fill="#FFF600"/>
</svg>
