<svg width="90" height="90" viewBox="0 0 90 90" fill="none" xmlns="http://www.w3.org/2000/svg">
<path d="M45 90C69.8528 90 90 69.8528 90 45C90 20.1472 69.8528 0 45 0C20.1472 0 0 20.1472 0 45C0 69.8528 20.1472 90 45 90Z" fill="#FF5595"/>
<path d="M45.0764 61.7314C55.0689 61.7314 63.1694 53.631 63.1694 43.6385C63.1694 33.646 55.0689 25.5454 45.0764 25.5454C35.0839 25.5454 26.9834 33.646 26.9834 43.6385C26.9834 53.631 35.0839 61.7314 45.0764 61.7314Z" stroke="white" stroke-width="2.28255"/>
<path d="M44.6567 32.2952L44.8116 43.1335L52.0882 47.5402" stroke="white" stroke-width="1.88976"/>
</svg>
