<svg width="55" height="55" viewBox="0 0 55 55" fill="none" xmlns="http://www.w3.org/2000/svg">
<circle cx="27.5" cy="27.5" r="27.5" fill="#2C2C2C"/>
<path d="M20.9173 14.7781C8.60724 21.5436 13.8425 40.9946 27.8505 40.9946C35.0668 40.9946 42 34.0881 42 27.0407C42 16.4695 30.2559 9.56295 20.9173 14.7781ZM35.6327 19.1475C40.3021 23.6579 40.3021 30.1415 35.6327 34.6519C28.6995 41.6994 16.5309 36.7662 16.5309 26.8997C16.5309 21.1208 22.0492 15.6238 27.8505 15.6238C30.5389 15.6238 33.5103 16.8923 35.6327 19.1475Z" fill="white"/>
<path d="M26.4365 23.094C26.4365 26.054 27.5685 28.8729 29.2664 30.4234C32.8038 33.6652 34.7847 32.1148 31.6718 28.591C30.2569 27.1816 29.2664 24.2216 29.2664 22.2483C29.2664 20.1341 28.7004 18.4427 27.8515 18.4427C27.144 18.4427 26.4365 20.5569 26.4365 23.094Z" fill="white"/>
</svg>
