<svg width="105" height="105" viewBox="0 0 105 105" fill="none" xmlns="http://www.w3.org/2000/svg">
<path d="M52.5 105C81.4949 105 105 81.4949 105 52.5C105 23.505 81.4949 0 52.5 0C23.505 0 0 23.505 0 52.5C0 81.4949 23.505 105 52.5 105Z" fill="#FFA66B"/>
<path d="M35.4062 60.6289L54.1104 71.8828L70.8876 60.2486L70.79 41.7432L53.9192 29.8066L35.6181 40.4825L35.4062 60.6289Z" fill="#FFA66B" stroke="white" stroke-width="2"/>
<path d="M45.1875 34.8633L61.8915 47.6033L70.8759 41.5522" fill="#FFA66B"/>
<path d="M45.1875 34.8633L61.8915 47.6033L70.8759 41.5522" stroke="white" stroke-width="2"/>
<path d="M62.0494 47.5078L53.8594 53.1188L54.0716 71.8643" fill="#FFA66B"/>
<path d="M62.0494 47.5078L53.8594 53.1188L54.0716 71.8643" stroke="white" stroke-width="2"/>
<path d="M35.5469 40.4707L53.9422 53.0781L35.5469 40.4707Z" fill="#FFA66B"/>
<path d="M35.5469 40.4707L53.9422 53.0781" stroke="white" stroke-width="2"/>
</svg>
